<svg width="1108" height="731.18" xmlns="http://www.w3.org/2000/svg">
 <title>react</title>

 <g>
  <title>background</title>
  <rect fill="none" id="canvas_background" height="602" width="802" y="-1" x="-1"/>
 </g>
 <g>
  <title>Layer 1</title>
  <ellipse id="svg_3" fill="#3f3d56" ry="23.5" rx="554" cy="707.68" cx="554"/>
  <ellipse id="svg_4" opacity="0.1" ry="23.5" rx="554" cy="707.68" cx="554"/>
  <ellipse id="svg_5" fill="#3f3d56" ry="23.5" rx="554" cy="694.68" cx="554"/>
  <path id="svg_28" fill="#53c1de" d="m745.57,331.15q-9.92,-3.4 -20,-6.3q1.66,-6.79 3.09,-13.65c15.14,-73.51 5.24,-132.73 -28.57,-152.22c-32.42,-18.7 -85.44,0.8 -139,47.39q-7.92,6.92 -15.47,14.2q-5.07,-4.85 -10.3,-9.51c-56.11,-49.83 -112.32,-70.82 -146.14,-51.27c-32.39,18.75 -42,74.42 -28.35,144.09q2,10.35 4.59,20.58c-7.95,2.26 -15.64,4.67 -23,7.24c-65.79,22.89 -107.81,58.89 -107.81,96.18c0,38.51 45.11,77.14 113.64,100.56q8.34,2.83 16.8,5.26q-2.74,11 -4.88,22.18c-13,68.46 -2.84,122.82 29.46,141.45c33.37,19.26 89.37,-0.54 143.89,-48.2c4.31,-3.77 8.63,-7.77 13,-11.95q8.18,7.89 16.79,15.32c52.82,45.45 105,63.81 137.26,45.12c33.33,-19.29 44.16,-77.69 30.1,-148.73q-1.6,-8.14 -3.73,-16.61q5.91,-1.74 11.56,-3.61c71.24,-23.6 117.6,-61.76 117.6,-100.79c0,-37.43 -43.38,-73.62 -110.5,-96.73l-0.03,0z"/>
  <path id="svg_29" fill="#fff" d="m730.12,503.47c-3.4,1.13 -6.88,2.21 -10.44,3.27a621.6,621.6 0 0 0 -31.47,-78.73a623.06,623.06 0 0 0 30.25,-77.58c6.35,1.84 12.53,3.78 18.47,5.83c57.51,19.79 92.59,49.06 92.59,71.62c0,24 -37.89,55.21 -99.4,75.59zm-25.52,50.58c6.22,31.41 7.1,59.81 3,82c-3.7,19.95 -11.14,33.25 -20.34,38.58c-19.59,11.33 -61.47,-3.4 -106.64,-42.27q-7.77,-6.69 -15.63,-14.25a624.23,624.23 0 0 0 52.09,-66.14a620.2,620.2 0 0 0 84.17,-13q1.9,7.68 3.37,15l-0.02,0.08zm-258.12,118.64c-19.14,6.76 -34.38,6.95 -43.59,1.64c-19.6,-11.31 -27.75,-55 -16.63,-113.5q2,-10.37 4.53,-20.63a625.79,625.79 0 0 0 83.75,12.13a645.09,645.09 0 0 0 53.35,65.9q-5.79,5.61 -11.84,10.91c-24.11,21.08 -48.28,36 -69.57,43.55zm-89.64,-169.37c-30.31,-10.36 -55.33,-23.82 -72.49,-38.5c-15.41,-13.2 -23.19,-26.31 -23.19,-36.94c0,-22.63 33.74,-51.5 90,-71.11q10.6,-3.69 21.39,-6.73a637.08,637.08 0 0 0 30.29,78.48a646.29,646.29 0 0 0 -30.66,79.6q-7.74,-2.21 -15.34,-4.8zm30.05,-204.54c-11.68,-59.69 -3.93,-104.72 15.59,-116c20.79,-12 66.76,5.12 115.22,48.15c3.1,2.75 6.21,5.63 9.32,8.6a635.89,635.89 0 0 0 -52.93,65.52a648.42,648.42 0 0 0 -82.93,12.89q-2.39,-9.52 -4.27,-19.15l0,-0.01zm268.11,66.19q-9.11,-15.74 -18.89,-31.08c19.83,2.51 38.82,5.83 56.66,9.91a565.54,565.54 0 0 1 -19.89,53.51q-8.61,-16.35 -17.88,-32.34zm-109.36,-106.47a569.3,569.3 0 0 1 36.57,44.14q-36.71,-1.73 -73.45,0c12.07,-15.92 24.44,-30.72 36.88,-44.13l0,-0.01zm-110,106.65q-9.15,15.87 -17.55,32.14c-7.73,-18.33 -14.34,-36.36 -19.74,-53.77c17.73,-4 36.64,-7.21 56.34,-9.68q-9.92,15.44 -19.07,31.31l0.02,0zm19.61,158.65a564.64,564.64 0 0 1 -57.25,-9.21c5.49,-17.71 12.25,-36.13 20.15,-54.86q8.43,16.29 17.61,32.16q9.34,16.19 19.47,31.91l0.02,0zm91.14,75.33c-12.6,-13.54 -25.15,-28.54 -37.39,-44.75q17.85,0.71 36.36,0.71q19,0 37.51,-0.84a563.94,563.94 0 0 1 -36.5,44.88l0.02,0zm126.69,-140.35a562.82,562.82 0 0 1 20.92,54.66a561.35,561.35 0 0 1 -58,9.89q9.85,-15.63 19.08,-31.63q9.38,-16.26 18,-32.92zm-41,19.66q-14.12,24.52 -29.81,48.1c-18.44,1.32 -37.49,2 -56.91,2s-38.15,-0.6 -56.27,-1.78q-16.09,-23.5 -30.39,-48.17t-26.51,-50.08q12.27,-25.53 26.43,-50.1l0,0q14.14,-24.56 30.13,-48c18.49,-1.4 37.43,-2.13 56.59,-2.13s38.22,0.74 56.69,2.14q15.81,23.37 30,47.81t26.79,49.87q-12.45,25.62 -26.71,50.3l-0.03,0.04zm54.77,-296.46c20.81,12 28.9,60.4 15.83,123.87q-1.29,6.19 -2.8,12.35a635.74,635.74 0 0 0 -83.09,-13.13a625.16,625.16 0 0 0 -52.53,-65.56q7,-6.74 14.29,-13.11c45.88,-39.93 88.76,-55.69 108.3,-44.42z"/>
  <path id="svg_30" fill="#53c1de" d="m545.34,372.38a55.5,55.5 0 1 1 -55.5,55.5a55.49,55.49 0 0 1 55.5,-55.5"/>
 </g>
</svg>