<svg width="1167.52" height="756.03" xmlns="http://www.w3.org/2000/svg" xmlns:xlink="http://www.w3.org/1999/xlink">
 <defs>
  <linearGradient y2="0" x2="0.5" y1="1" x1="0.5" id="b752362c-f89d-48d5-9dd1-266417fc8d3c">
   <stop stop-opacity="0.25" stop-color="gray" offset="0"/>
   <stop stop-opacity="0.12" stop-color="gray" offset="0.54"/>
   <stop stop-opacity="0.1" stop-color="gray" offset="1"/>
  </linearGradient>
  <linearGradient xlink:href="#b752362c-f89d-48d5-9dd1-266417fc8d3c" gradientTransform="translate(74.47 -1004.13)" y2="1173.83" x2="567.7" y1="1179.83" x1="567.7" id="a11e32f9-0bc0-4cef-b66b-30dd4b707f0c"/>
  <linearGradient xlink:href="#b752362c-f89d-48d5-9dd1-266417fc8d3c" y2="483.16" x2="588.52" y1="693.03" x1="588.52" id="ada07a9a-e50a-4215-9506-0eaaef22308f"/>
 </defs>
 <title>about me</title>
 <g>
  <title>background</title>
  <rect fill="none" id="canvas_background" height="602" width="802" y="-1" x="-1"/>
 </g>
 <g>
  <title>Layer 1</title>
  <ellipse id="svg_1" opacity="0.1" fill="#3d70b2" ry="31" rx="541" cy="725.03" cx="560.76"/>
  <path id="svg_26" fill="url(#b752362c-f89d-48d5-9dd1-266417fc8d3c)" d="m1056.3,113.71l-968.74,0a8.64,8.64 0 0 0 -8.63,8.66l0,592.88a17.43,17.43 0 0 0 17.4,17.46l951.2,0a17.43,17.43 0 0 0 17.4,-17.46l0,-592.88a8.65,8.65 0 0 0 -8.63,-8.66z"/>
  <path id="svg_27" fill="#fff" d="m1061.01,150.52l0,561.24a17.26,17.26 0 0 1 -17.25,17.25l-943.49,0a17.26,17.26 0 0 1 -17.26,-17.26l0,-561.23l978,0z"/>
  <path id="svg_28" fill="#ededf4" d="m1061.01,125.58l0,24.94l-978,0l0,-24.94a8.56,8.56 0 0 1 8.56,-8.56l960.88,0a8.56,8.56 0 0 1 8.56,8.56z"/>
  <circle id="svg_29" opacity="0.8" fill="#fa5959" r="4" cy="133.52" cx="98.51"/>
  <circle id="svg_30" opacity="0.8" fill="#fed253" r="4" cy="133.52" cx="109.51"/>
  <circle id="svg_31" opacity="0.8" fill="#8ccf4d" r="4" cy="133.52" cx="120.51"/>
  <rect id="svg_32" fill="url(#a11e32f9-0bc0-4cef-b66b-30dd4b707f0c)" transform="rotate(90 798.6300048828126,-541.4500122070312) " height="6" width="4" y="-371.75001" x="1438.8"/>
  <rect id="svg_33" fill="#ededf4" height="10" width="94" y="199.71" x="307.93"/>
  <rect id="svg_34" fill="#ededf4" height="10" width="528" y="228.71" x="307.93"/>
  <rect id="svg_35" fill="#ededf4" height="10" width="528" y="257.71" x="307.93"/>
  <rect id="svg_36" fill="#ededf4" height="10" width="528" y="286.71" x="307.93"/>
  <rect id="svg_37" fill="#ededf4" height="10" width="528" y="315.71" x="307.93"/>
  <rect id="svg_38" fill="#ededf4" height="252" width="326" y="371.03" x="408.76"/>
  <path id="svg_39" fill="url(#ada07a9a-e50a-4215-9506-0eaaef22308f)" d="m628.96,449.1c-0.42,0 -0.84,0.06 -1.27,0.07a5.58,5.58 0 0 0 0.14,-1.78a17,17 0 0 0 -2,-7.21a31.3,31.3 0 0 0 -2.48,-3.76c-2.72,-3.76 -5.24,-7.6 -8.23,-11.15a17.93,17.93 0 0 1 -3.17,-4.67a22.83,22.83 0 0 0 -1.08,-2.71a5.83,5.83 0 0 0 -5.45,-2.65a8.65,8.65 0 0 0 -5.52,2.92c-0.84,0.9 -1.53,2.29 -0.83,3.31s2.22,1.15 2.31,2.27c0,0.6 0,1.58 -0.61,1.77a10.87,10.87 0 0 0 -3.06,1.34a3.61,3.61 0 0 0 -1.61,2.8c1.73,0.26 3.18,-1.19 4.75,-2a8.77,8.77 0 0 1 6.28,-0.23a5.88,5.88 0 0 1 2.16,1.09a7.61,7.61 0 0 1 1.4,1.88a20.07,20.07 0 0 1 3.46,9.38l0.88,5.62a36.49,36.49 0 0 0 -3.88,0.52a24.37,24.37 0 0 1 -10.33,-0.7c-3.5,-1 -7,-2.82 -10.61,-2c-1.69,0.37 -3.23,1.31 -4.94,1.58a13.53,13.53 0 0 1 -4,-0.21l-2.75,-0.44c-0.09,-0.23 -0.16,-0.47 -0.23,-0.71a20.74,20.74 0 0 1 -0.78,-6.17a11,11 0 0 0 9.4,-15.59a9.33,9.33 0 0 0 3.55,-3.53l-0.7,-0.13l0.66,-1a1.18,1.18 0 0 1 -0.19,-1.87a3.77,3.77 0 0 0 -1.89,-0.42c0.21,-0.39 -0.13,-0.87 -0.54,-1a4.7,4.7 0 0 0 -1.3,-0.08a6.37,6.37 0 0 1 -1.86,-0.43c-4.27,-1.47 -8.9,-2.76 -13.25,-1.53a16.57,16.57 0 0 0 -5.29,2.78a6.91,6.91 0 0 0 -2.82,9.07a23.48,23.48 0 0 1 1.41,5.09a16.16,16.16 0 0 1 -0.55,4.83a19.69,19.69 0 0 0 2.91,0.65a16.5,16.5 0 0 1 -2.89,5.92a23.52,23.52 0 0 1 -2,2.21l-0.12,0a48.59,48.59 0 0 1 -6,0.74c-2.12,0 -4.2,-0.8 -6.31,-0.65a17.11,17.11 0 0 0 -3.67,0.83a56.23,56.23 0 0 1 -16.91,2.26l-0.69,0.07l0.64,-4.08a20.07,20.07 0 0 1 3.46,-9.38a7.61,7.61 0 0 1 1.4,-1.88a5.92,5.92 0 0 1 2.17,-1.09a8.74,8.74 0 0 1 6.27,0.23c1.57,0.77 3,2.22 4.76,2a3.64,3.64 0 0 0 -1.62,-2.8a10.87,10.87 0 0 0 -3.06,-1.34c-0.58,-0.19 -0.66,-1.17 -0.61,-1.77c0.09,-1.12 1.68,-1.36 2.31,-2.28s0,-2.4 -0.83,-3.31a8.66,8.66 0 0 0 -5.52,-2.91a5.81,5.81 0 0 0 -5.44,2.65a21.29,21.29 0 0 0 -1.09,2.71a17.93,17.93 0 0 1 -3.17,4.67c-3,3.55 -5.51,7.39 -8.23,11.15a33.31,33.31 0 0 0 -2.48,3.75a17.24,17.24 0 0 0 -2,7.22a5.64,5.64 0 0 0 0.14,1.79a1.15,1.15 0 0 0 -0.11,0.45a2.08,2.08 0 0 0 0.78,1.4c1.53,1.54 3.14,3.13 5.2,3.79a31.94,31.94 0 0 0 3.89,0.67c3.16,0.57 6.07,2.4 9.28,2.39c2.21,0 4.39,-0.88 6.57,-0.57c3,0.41 5.16,2.85 7,5.22a18,18 0 0 1 3.45,6.31c0.71,2.79 0.27,5.93 1.76,8.39a5.71,5.71 0 0 1 0.86,1.66a5.56,5.56 0 0 1 -0.61,2.72c-1.26,3.87 1.5,8 1.21,12c-0.14,1.95 -1,3.79 -1.09,5.74c-0.15,2.51 0.87,5.32 -0.53,7.41c0.85,-0.44 1.71,-0.83 2.59,-1.18c-4.2,12.31 -8,25 -7.71,37.94c0.22,8.39 2,17.63 -2.82,24.52a9.68,9.68 0 0 0 -1.61,2.75c-0.38,1.35 0,2.78 0.25,4.16c0.89,6 -2.35,11.91 -2.57,18a36.29,36.29 0 0 0 0.36,5.61l1.18,10.14a7.36,7.36 0 0 0 -3.22,1.6c-1.24,1 -2.33,2.64 -1.75,4.14c0.47,1.21 1.85,1.79 3.12,2.09a7.82,7.82 0 0 1 3.62,1.37a13.88,13.88 0 0 0 1.09,1.08a4,4 0 0 0 2.42,0.45c1.53,-0.06 3,-0.19 4.56,-0.4a1.81,1.81 0 0 0 0.91,-0.29a2,2 0 0 0 0.51,-1.5a19.87,19.87 0 0 0 -0.19,-4.56c-0.06,-0.29 -0.14,-0.57 -0.22,-0.86a17.75,17.75 0 0 0 1.11,-4c0.31,-2 0.36,-4.09 0.49,-6.14c0.3,-5.22 1,-10.4 1.8,-15.58l1,-6.66c0.31,-2.19 0.63,-4.38 1,-6.57a206.62,206.62 0 0 1 8.62,-34.9c0.85,-2.43 2.3,-5.28 4.87,-5.35l1.53,3c2,3.76 3.22,7.93 4.74,11.88c2,5.19 1.32,11.25 4,16.13c0.44,0.81 1,1.58 1.33,2.43a14,14 0 0 1 0.82,4.07l1.77,18c0.8,8.09 1.66,16.4 5.29,23.67a9.12,9.12 0 0 0 0.8,1.34a23.25,23.25 0 0 0 -0.05,3.64a1.43,1.43 0 0 0 1.42,1.79c1.51,0.2 3,0.33 4.55,0.39a4,4 0 0 0 2.42,-0.45a11.2,11.2 0 0 0 1.1,-1.08a7.78,7.78 0 0 1 3.61,-1.37c1.27,-0.29 2.65,-0.87 3.12,-2.09c0.59,-1.5 -0.51,-3.13 -1.75,-4.14a7,7 0 0 0 -3.56,-1.65a5.92,5.92 0 0 1 -1.62,-0.13a8,8 0 0 0 0.12,-2a10,10 0 0 1 -0.1,-2.38a14.13,14.13 0 0 1 0.82,-2.34c1.15,-3.54 -1.3,-7.14 -2.16,-10.76c-1.15,-4.82 0.56,-9.87 0.25,-14.82c-0.48,-7.77 -5.9,-15.06 -4.46,-22.71c1.15,-6.12 0.17,-12.41 -0.92,-18.54l-4,-22.81a25.28,25.28 0 0 0 -1.45,-5.41a12.75,12.75 0 0 0 2.18,-0.58c1,-2.44 0.83,-5.13 0.53,-7.75s-1,-5.18 -1.35,-7.78a51.29,51.29 0 0 1 -0.52,-6.31a25.43,25.43 0 0 1 0.44,-6.22a29.92,29.92 0 0 1 1.87,-5.23a92.87,92.87 0 0 1 7,-14c4.11,-0.32 8.09,-0.67 12.19,-1a16.93,16.93 0 0 0 2.92,-0.39a36.93,36.93 0 0 1 3.73,-1.07a5,5 0 0 0 1.38,-0.27c0.9,-0.41 1.45,-1.56 2.44,-1.6a4.24,4.24 0 0 0 1.12,0c0.44,-0.14 0.66,-0.62 1,-1c0.62,-0.69 1.63,-0.83 2.44,-1.28a3.54,3.54 0 0 0 1.34,-4.33z"/>
  <circle id="svg_40" fill="#a1616a" r="11" cy="427.16" cx="576.94"/>
  <path id="svg_41" fill="#a1616a" d="m564.24,440.85a27.41,27.41 0 0 1 -3.75,3.79a29.79,29.79 0 0 0 21.5,3.54c-0.27,-0.75 -1.25,-0.86 -1.94,-1.24a4.19,4.19 0 0 1 -1.7,-2.68a20.94,20.94 0 0 1 -0.64,-8.11a5,5 0 0 0 0,-2a4.29,4.29 0 0 0 -2.07,-2.28a20.41,20.41 0 0 0 -5,-2.25c-1.82,-0.54 -2.86,-0.79 -2.93,1.33a16.85,16.85 0 0 1 -3.47,9.9z"/>
  <path id="svg_42" fill="#a1616a" d="m615.28,447.77l-1.12,-7.1a26.39,26.39 0 0 0 -0.89,-4.22a27.21,27.21 0 0 0 -2.56,-5.12a7.56,7.56 0 0 0 -1.4,-1.87a5.88,5.88 0 0 0 -2.16,-1.09a8.71,8.71 0 0 0 -6.26,0.24c-1.57,0.76 -3,2.2 -4.75,1.95a3.58,3.58 0 0 1 1.62,-2.79a10.57,10.57 0 0 1 3,-1.34c0.57,-0.18 0.66,-1.16 0.61,-1.76c-0.09,-1.11 -1.68,-1.35 -2.31,-2.26s0,-2.39 0.82,-3.3a8.61,8.61 0 0 1 5.51,-2.89a5.78,5.78 0 0 1 5.44,2.63a21.16,21.16 0 0 1 1.09,2.7a18,18 0 0 0 3.16,4.65c3,3.53 5.51,7.35 8.22,11.09a34.61,34.61 0 0 1 2.48,3.74a16.91,16.91 0 0 1 2,7.18a4.47,4.47 0 0 1 -0.33,2.27a3.52,3.52 0 0 1 -3,1.72a10.63,10.63 0 0 1 -3.59,-0.72l-4.36,-1.47a2.84,2.84 0 0 1 -1.4,-0.77a1.1,1.1 0 0 1 0.18,-1.47z"/>
  <path id="svg_43" fill="#a1616a" d="m528.13,449.34l1.11,-7.1a27.55,27.55 0 0 1 0.9,-4.22a26.62,26.62 0 0 1 2.56,-5.12a7.07,7.07 0 0 1 1.39,-1.86a5.66,5.66 0 0 1 2.16,-1.09a8.74,8.74 0 0 1 6.27,0.23c1.57,0.76 3,2.2 4.75,1.95a3.6,3.6 0 0 0 -1.62,-2.79a10.69,10.69 0 0 0 -3,-1.34c-0.57,-0.18 -0.66,-1.16 -0.61,-1.76c0.09,-1.11 1.67,-1.35 2.31,-2.26s0,-2.39 -0.83,-3.29a8.6,8.6 0 0 0 -5.51,-2.9a5.79,5.79 0 0 0 -5.44,2.63a21.11,21.11 0 0 0 -1.08,2.7a18.21,18.21 0 0 1 -3.16,4.65c-3,3.53 -5.51,7.35 -8.23,11.09a34,34 0 0 0 -2.47,3.74a17.07,17.07 0 0 0 -2,7.18a4.53,4.53 0 0 0 0.34,2.28a3.53,3.53 0 0 0 3.05,1.71a10.34,10.34 0 0 0 3.58,-0.72l4.37,-1.43a2.77,2.77 0 0 0 1.39,-0.77a1.1,1.1 0 0 0 -0.23,-1.51z"/>
  <path id="svg_44" fill="#3f3d56" d="m607.33,611.42c1.24,1 2.33,2.63 1.75,4.12c-0.48,1.21 -1.85,1.78 -3.12,2.08a7.88,7.88 0 0 0 -3.61,1.36a11,11 0 0 1 -1.09,1.03a3.93,3.93 0 0 1 -2.42,0.45c-1.52,-0.06 -3,-0.19 -4.55,-0.39a1.81,1.81 0 0 1 -0.91,-0.29a1.93,1.93 0 0 1 -0.5,-1.49a19.13,19.13 0 0 1 0.18,-4.54a6.5,6.5 0 0 1 2.19,-3.87c1.16,-0.9 4.68,-3.57 6,-1.86c0.35,0.46 0.21,1.09 0.7,1.47s1.26,0.17 1.82,0.24a7,7 0 0 1 3.56,1.69z"/>
  <path id="svg_45" fill="#3f3d56" d="m539.76,611.94c-1.24,1 -2.33,2.63 -1.75,4.12c0.47,1.21 1.84,1.79 3.11,2.08a7.84,7.84 0 0 1 3.61,1.36a11.2,11.2 0 0 0 1.1,1.08a4,4 0 0 0 2.41,0.45c1.52,-0.06 3,-0.19 4.55,-0.4a1.78,1.78 0 0 0 0.91,-0.29a1.93,1.93 0 0 0 0.51,-1.49a19.59,19.59 0 0 0 -0.19,-4.53a6.45,6.45 0 0 0 -2.19,-3.88c-1.15,-0.9 -4.67,-3.57 -6,-1.86c-0.35,0.46 -0.21,1.1 -0.71,1.47s-1.25,0.17 -1.82,0.24a7.06,7.06 0 0 0 -3.54,1.65z"/>
  <path id="svg_46" fill="#3f3d56" d="m556.76,505.24c-4.51,13 -8.89,26.45 -8.55,40.24c0.22,8.35 2,17.55 -2.81,24.4a9.54,9.54 0 0 0 -1.61,2.74c-0.38,1.34 0,2.76 0.24,4.14c0.9,6 -2.33,11.86 -2.56,17.92a36,36 0 0 0 0.36,5.58l1.25,10.68c0.42,3.66 5.14,5.16 8.78,5.67a13.61,13.61 0 0 0 3.09,-7.19c0.31,-2 0.36,-4.07 0.48,-6.1c0.31,-5.2 1.06,-10.36 1.8,-15.51l1,-6.63c0.32,-2.18 0.63,-4.36 1,-6.54a205.66,205.66 0 0 1 8.63,-34.63c0.85,-2.43 2.3,-5.26 4.86,-5.33l1.53,2.94c2,3.73 3.21,7.89 4.73,11.82c2,5.17 1.31,11.19 4,16.06c0.44,0.8 1,1.57 1.32,2.41a13.9,13.9 0 0 1 0.82,4l1.77,17.88c0.8,8.05 1.65,16.32 5.28,23.55a5.47,5.47 0 0 0 1.67,2.2c1.48,1 3.55,0.49 5,-0.55a8.53,8.53 0 0 0 3.46,-7.38a11.07,11.07 0 0 1 -0.1,-2.37a15.76,15.76 0 0 1 0.82,-2.33c1.16,-3.52 -1.29,-7.1 -2.16,-10.7c-1.15,-4.8 0.56,-9.82 0.26,-14.75c-0.48,-7.74 -5.89,-15 -4.46,-22.61c1.15,-6.09 0.17,-12.35 -0.91,-18.45l-4.05,-22.7c-0.64,-3.58 -1.6,-7.62 -4.79,-9.37a11.9,11.9 0 0 0 -5.83,-1c-8.27,0 -16.17,1.15 -24.32,1.91z"/>
  <path id="svg_47" fill="#3d70b2" d="m628.96,449.91a14.3,14.3 0 0 1 -8.4,-1.74a16.86,16.86 0 0 0 -3.09,-1.62c-2,-0.65 -4.2,-0.08 -6.3,0.23a24.6,24.6 0 0 1 -10.31,-0.7c-3.5,-1 -7,-2.81 -10.6,-2c-1.69,0.37 -3.22,1.3 -4.93,1.57a13.12,13.12 0 0 1 -4,-0.21l-11.4,-1.78a31.18,31.18 0 0 0 -7.82,-0.56a50.62,50.62 0 0 1 -6,0.75c-2.11,0 -4.19,-0.8 -6.3,-0.66a17.16,17.16 0 0 0 -3.66,0.83a56.33,56.33 0 0 1 -16.87,2.25a25.33,25.33 0 0 0 -12.69,4.4a2,2 0 0 0 -1,1.39a2.05,2.05 0 0 0 0.79,1.38c1.52,1.54 3.13,3.12 5.19,3.78a31.43,31.43 0 0 0 3.88,0.66c3.15,0.58 6.06,2.39 9.26,2.39c2.21,0 4.38,-0.88 6.56,-0.57c3,0.41 5.15,2.83 7,5.19a18.17,18.17 0 0 1 3.45,6.28c0.7,2.78 0.26,5.9 1.75,8.35a5.78,5.78 0 0 1 0.86,1.65a5.5,5.5 0 0 1 -0.61,2.71c-1.26,3.85 1.5,7.92 1.21,12c-0.14,1.93 -1,3.77 -1.09,5.7c-0.14,2.51 0.87,5.3 -0.53,7.38a35.85,35.85 0 0 1 17.45,-3.81a21.88,21.88 0 0 1 3,0.28a42,42 0 0 1 5.68,1.58c4.18,1.33 8.78,2.28 12.9,0.76c1,-2.43 0.83,-5.11 0.52,-7.71s-0.95,-5.16 -1.34,-7.75a50.81,50.81 0 0 1 -0.52,-6.28a25.19,25.19 0 0 1 0.44,-6.19a29.34,29.34 0 0 1 1.87,-5.2a91.61,91.61 0 0 1 7,-14c4.1,-0.33 8.07,-0.68 12.17,-1a18.85,18.85 0 0 0 2.91,-0.39a37.45,37.45 0 0 1 3.72,-1.06a4.91,4.91 0 0 0 1.38,-0.28c0.9,-0.41 1.46,-1.55 2.44,-1.58a4.69,4.69 0 0 0 1.12,0c0.44,-0.13 0.65,-0.62 1,-1c0.62,-0.69 1.63,-0.83 2.44,-1.27a3.52,3.52 0 0 0 1.47,-4.15z"/>
  <path id="svg_48" fill="#3f3d56" d="m578.85,431.13a2,2 0 0 0 2.27,0.14a2.82,2.82 0 0 0 0.84,-1.54a35.41,35.41 0 0 0 0.87,-3.8a4.17,4.17 0 0 1 0.5,-1.59c0.73,-1.12 2.31,-1.18 3.54,-1.69a9.2,9.2 0 0 0 3.63,-3.56l-0.69,-0.14l0.65,-1a1.16,1.16 0 0 1 -0.18,-1.85a3.69,3.69 0 0 0 -1.9,-0.43c0.21,-0.38 -0.13,-0.86 -0.54,-1a4.27,4.27 0 0 0 -1.29,-0.07a6.38,6.38 0 0 1 -1.86,-0.44c-4.26,-1.46 -8.88,-2.75 -13.22,-1.52a16.44,16.44 0 0 0 -5.29,2.77a6.87,6.87 0 0 0 -2.81,9a23.28,23.28 0 0 1 1.4,5.05a16.08,16.08 0 0 1 -0.54,4.82a15.72,15.72 0 0 0 3.65,0.71a5.24,5.24 0 0 0 3.5,-1c1,-0.86 1.56,-2.19 2.38,-3.27a3.39,3.39 0 0 1 2.89,-1.52c1.11,0.17 1.31,1.3 2.2,1.93z"/>
  <path id="svg_49" fill="#3f3d56" d="m549.93,620.01l-11.71,0a1.53,1.53 0 0 0 0,3l2.34,0l0,19.87l-40.07,0a1.11,1.11 0 0 0 -0.89,-0.54l-11.7,0a1.53,1.53 0 0 0 0,3l2.34,0l0,20.41l-38.69,0a1.24,1.24 0 0 0 -1.1,-1.08l-11.69,0a1.52,1.52 0 0 0 0,3l1.17,0l0,21l-39.33,0a1,1 0 0 0 -0.48,-0.13l-11.7,0a1.53,1.53 0 0 0 0,3l1.17,0l0,20l-38.83,0a1.12,1.12 0 0 0 -1,-0.68l-11.7,0a1.53,1.53 0 0 0 0,3l1.17,0l0,22.15l264.53,0l0,-116l-53.83,0z"/>
  <path id="svg_50" opacity="0.1" fill="#3d70b2" d="m173.02,236.31a27.69,27.69 0 0 0 -3.91,-4.18a3.36,3.36 0 0 1 0.37,-5.35c0.48,-0.31 0.95,-0.64 1.42,-1c5.46,-4.15 8.22,-9.72 6.15,-12.45s-8.18,-1.57 -13.64,2.58a21,21 0 0 0 -1.81,1.51a3.35,3.35 0 0 1 -5.24,-1a28.28,28.28 0 0 0 -2.69,-4.28c-4.86,-6.4 -11.38,-9.63 -14.57,-7.21s-1.85,9.58 3,16a27.58,27.58 0 0 0 3.15,3.5a3.38,3.38 0 0 1 -0.74,5.39l0,0c-6,3.43 -9.39,8.6 -7.69,11.57s7.92,2.6 13.87,-0.82a26.13,26.13 0 0 0 2.66,-1.77a3.38,3.38 0 0 1 5.1,1.24a26.26,26.26 0 0 0 3,5c4.85,6.4 11.38,9.63 14.57,7.21s1.85,-9.53 -3,-15.94z"/>
  <path id="svg_51" opacity="0.1" fill="#3d70b2" d="m881.34,409.12a27.22,27.22 0 0 0 2.87,-4.95a3.34,3.34 0 0 1 5.21,-1.2c0.44,0.36 0.9,0.71 1.37,1.06c5.56,4 11.7,5 13.7,2.25s-0.88,-8.28 -6.44,-12.3q-1,-0.71 -2,-1.29a3.35,3.35 0 0 1 -0.55,-5.31a27.17,27.17 0 0 0 3.3,-3.82c4.71,-6.51 5.89,-13.69 2.65,-16s-9.7,1 -14.41,7.55a28.2,28.2 0 0 0 -2.43,4a3.38,3.38 0 0 1 -5.37,0.87l0,0c-5,-4.69 -11,-6.47 -13.31,-4s-0.17,8.33 4.84,13a24.14,24.14 0 0 0 2.47,2a3.38,3.38 0 0 1 0.29,5.24a26.85,26.85 0 0 0 -3.93,4.39c-4.71,6.51 -5.89,13.69 -2.64,16s9.67,-0.97 14.38,-7.49z"/>
 </g>
</svg>